<svg width="643" height="599" viewBox="0 0 643 599" fill="none" xmlns="http://www.w3.org/2000/svg">
<path d="M496.764 -493.231C520.757 -459.122 545.483 -426.072 569.593 -392.133C666.784 -255.319 759.422 -113.732 846.191 36.6017C869.864 77.6172 891.285 119.825 911.321 163.931C915.092 172.233 913.907 172.964 907.588 166.748C870.976 130.737 834.788 94.1935 797.459 60.1476C649.981 -74.3582 498.064 -188.849 341.839 -281.731C305.3 -303.454 267.392 -318.595 231.118 -341.225C221.746 -347.072 246.211 -319.371 254.104 -309.005C295.922 -254.086 338.576 -200.696 380.698 -146.324C467.067 -34.8384 547.523 87.476 626.499 209.882C644.626 237.977 672.386 273.46 684.818 307.785C686.857 313.414 682.117 309.526 680.177 308.093C652.543 287.687 625.399 263.687 598.074 242.002C420.269 100.9 241.346 -23.4023 57.5952 -129.208C55.6901 -130.305 20.4852 -154.451 25.3472 -143.258C35.1629 -120.66 53.1434 -101.118 66.0918 -82.6291C113.464 -14.9868 158.249 56.5758 202.64 128.154C271.352 238.95 335.607 354.167 401.716 467.832C422.935 504.314 445.143 539.756 469.067 572.551" stroke="#F4F4F4" stroke-width="50" stroke-linecap="round"/>
</svg>
