<svg width="178" height="39" viewBox="0 0 178 39" fill="none" xmlns="http://www.w3.org/2000/svg">
<path d="M58.0789 8.78H48.7189V27.5H53.3989V20.142H53.6589L59.4829 27.5H64.7869V27.11L59.0279 20.22C62.0959 20.09 64.5269 18.192 64.5269 14.526C64.5269 10.691 61.6799 8.78 58.0789 8.78ZM53.3989 16.71V12.602H57.3249C58.8719 12.602 59.8989 13.265 59.8989 14.656C59.8989 16.047 58.8719 16.71 57.3249 16.71H53.3989ZM66.8032 18.14C66.8032 24.172 70.4432 27.864 76.7612 27.864C83.0792 27.864 86.7192 24.172 86.7192 18.14C86.7192 12.108 83.0792 8.416 76.7612 8.416C70.4432 8.416 66.8032 12.108 66.8032 18.14ZM71.6652 18.14C71.6652 14.5 73.4592 12.368 76.7612 12.368C80.0632 12.368 81.8572 14.5 81.8572 18.14C81.8572 21.78 80.0632 23.912 76.7612 23.912C73.4592 23.912 71.6652 21.78 71.6652 18.14ZM87.1768 8.78V9.17L94.1708 20.844V27.5H98.9548V20.844L105.949 9.17V8.78H100.775L96.7188 16.099H96.5108L92.4548 8.78H87.1768ZM111.499 8.78L105.311 27.11V27.5H110.017L111.213 23.548H117.713L118.909 27.5H123.719V27.11L117.531 8.78H111.499ZM112.409 19.622L114.359 13.161H114.567L116.517 19.622H112.409ZM126.664 8.78V27.5H140.132V23.444H131.448V8.78H126.664ZM139.363 8.78V12.784H145.447V27.5H150.231V12.784H156.315V8.78H139.363ZM158.14 8.78V9.17L165.134 20.844V27.5H169.918V20.844L176.912 9.17V8.78H171.738L167.682 16.099H167.474L163.418 8.78H158.14Z" fill="#08231E"/>
<path d="M31.8412 30.2853L3.11914 36.5005V15.2961L10.9524 22.9343L16.5826 7.98422L22.4168 20.0488L30.4949 6.15625L31.8412 30.2853Z" stroke="#08231E" stroke-width="4" stroke-linejoin="round"/>
<path d="M2.5105 11.4043C2.27405 11.7039 2.11496 12.2291 2.02792 12.5837C1.97816 12.7864 1.99252 13.0194 2.09288 13.2074C2.26597 13.5317 2.42258 13.6539 2.86316 13.7026C3.18253 13.7379 3.76898 13.7975 4.04179 13.6157C4.30523 13.4401 4.41507 12.7447 4.26452 12.493C4.10106 12.2196 3.8087 11.7272 3.47103 11.5744C3.26086 11.4793 2.91395 11.5404 2.67755 11.5404" stroke="#08231E" stroke-width="4" stroke-linecap="round"/>
<path d="M16.5422 4.73429C16.5155 4.56001 15.9481 4.70413 15.8369 4.74941C15.3115 4.96343 15.0257 5.55707 14.8764 5.99307C14.5703 6.88653 15.8825 7.20042 16.7881 7.1082C17.2196 7.06426 17.6518 6.81385 17.9157 6.5374C18.0497 6.39707 17.9621 6.02108 17.9621 5.86832C17.9621 5.49896 17.8926 5.45885 17.4981 5.30887C17.2317 5.20759 17.0443 5.04087 16.7928 4.93842" stroke="#08231E" stroke-width="4" stroke-linecap="round"/>
<path d="M30.6183 2.5C30.3523 2.5 30.0863 2.5 29.8202 2.5C29.4018 2.5 29.2405 3.11042 29.1984 3.38455C29.0683 4.23238 29.1098 4.95961 30.3399 5.01377C30.9602 5.04109 31.4941 5.03181 31.9083 4.60552C32.2458 4.25826 32.216 3.96378 32.2053 3.53575C32.1937 3.07259 32.0288 2.88884 31.4861 2.77595C30.9302 2.66033 30.2747 2.56804 29.6996 2.56804" stroke="#08231E" stroke-width="4" stroke-linecap="round"/>
</svg>
